<svg xmlns="http://www.w3.org/2000/svg" viewBox="0 0 512 512" id="user"><path fill="#1083c4" d="M512,251.34c0,67-26.65,130-75,177.29a21.26,21.26,0,0,1-2.25,2c-48,46-111.41,71.34-178.54,71.37h-.11c-67.27,0-130.77-25.41-178.84-71.55l-1.87-1.84a247.54,247.54,0,0,1,0-354.56C123.63,26.64,187.85.51,256.17.51S388.72,26.64,437,74.07,512,184.35,512,251.34Z"></path><path fill="#2196f3" d="M493,251.34c0,62-24.67,120.3-69.45,164.11a19.68,19.68,0,0,1-2.08,1.85c-44.45,42.58-103.13,66-165.28,66.07h-.1c-62.27,0-121.05-23.52-165.55-66.23l-1.73-1.7a229.15,229.15,0,0,1,0-328.22c44.68-43.9,104.13-68.08,167.37-68.08s122.7,24.18,167.38,68.09S493,189.32,493,251.34Z"></path><path fill="#fff" d="M378.37 184.58a122.38 122.38 0 1 1-35.84-86.53A121.57 121.57 0 0 1 378.37 184.58zM434.79 409.05a254 254 0 0 1-178.63 73.44h-.1a253.92 253.92 0 0 1-178.8-72.56 7.49 7.49 0 0 1-.64-10 230.51 230.51 0 0 1 114-77.19 7.46 7.46 0 0 0 1.09 6.73l56.86 77.43a7.47 7.47 0 0 0 5.94 3.06h.11a7.51 7.51 0 0 0 5.92-2.89l59.68-76.62a7.51 7.51 0 0 0 1.22-6.93 7 7 0 0 0-.46-1.09A229.64 229.64 0 0 1 435.38 399 7.5 7.5 0 0 1 434.79 409.05z"></path></svg>